<?xml version="1.0" encoding="utf-8" ?><svg xmlns="http://www.w3.org/2000/svg" xmlns:xlink="http://www.w3.org/1999/xlink" width="1024" height="341" viewBox="0 0 1024 341"><path fill="#471E74" d="M338.397 146.579L339.87 145.741L340.504 146.178C341.406 172.238 340.65 200.344 341.05 226.602C331.293 233.426 320.434 239.542 310.391 245.948C306.164 248.644 297.231 253.996 293.654 257.271C301.082 269.231 310.91 284.706 317.482 296.8C306.912 291.119 296.37 285.385 285.857 279.599C279.641 276.19 271.219 271.812 265.484 267.856C258.192 263.884 249.389 257.775 241.982 253.428C228.244 245.364 214.123 236.782 200.889 227.937C199.067 226.79 199.805 209.71 199.804 206.172L199.538 160.603C199.511 157.951 198.825 148.051 199.843 146.45C201.411 146.042 201.004 146.208 202.824 147.088C218.192 157.545 234.385 166.845 250.052 176.796C253.488 178.979 267.122 187.24 269.907 189.708L270.694 189.835C274.589 186.483 288.584 177.895 293.299 174.885C308.21 165.257 323.244 155.821 338.397 146.579Z"/><path fill="#4D3495" d="M200.889 227.937C199.067 226.79 199.805 209.71 199.804 206.172L199.538 160.603C199.511 157.951 198.825 148.051 199.843 146.45C201.411 146.042 201.004 146.208 202.824 147.088C218.192 157.545 234.385 166.845 250.052 176.796C253.488 178.979 267.122 187.24 269.907 189.708C261.688 198.366 248.663 209.184 241.416 217.592L240.4 218.085L240.057 217.805C234.229 219.012 203.979 224.91 200.889 227.937Z"/><path fill="#471E74" d="M200.889 227.937C199.067 226.79 199.805 209.71 199.804 206.172L199.538 160.603C199.511 157.951 198.825 148.051 199.843 146.45C201.411 146.042 201.004 146.208 202.824 147.088C202.798 157.025 234.336 204.96 240.057 217.805C234.229 219.012 203.979 224.91 200.889 227.937Z"/><path fill="#AF50C5" d="M338.397 146.579L339.87 145.741L340.504 146.178C341.406 172.238 340.65 200.344 341.05 226.602C329.396 222.805 312.154 214.265 302.115 211.609C292.697 205.044 279.186 196.388 270.694 189.835C274.589 186.483 288.584 177.895 293.299 174.885C308.21 165.257 323.244 155.821 338.397 146.579Z"/><path fill="#8B42B4" d="M270.694 189.835C274.589 186.483 288.584 177.895 293.299 174.885C308.21 165.257 323.244 155.821 338.397 146.579C337.964 152.156 307.205 203.22 302.115 211.609C292.697 205.044 279.186 196.388 270.694 189.835Z"/><path fill="#712993" d="M270.694 189.835C279.186 196.388 292.697 205.044 302.115 211.609C312.154 214.265 329.396 222.805 341.05 226.602C331.293 233.426 320.434 239.542 310.391 245.948C306.164 248.644 297.231 253.996 293.654 257.271C290.114 257.729 274.359 267.964 269.357 270.215C279.018 255.167 293.323 228.346 301.717 211.897C282.524 212.58 259.362 217.363 241.416 217.592C248.663 209.184 261.688 198.366 269.907 189.708L270.694 189.835Z"/><path d="M240.057 217.805L240.4 218.085C245.411 227.682 250.48 237.248 255.607 246.783C258.134 251.427 265.634 263.418 265.484 267.856C258.192 263.884 249.389 257.775 241.982 253.428C228.244 245.364 214.123 236.782 200.889 227.937C203.979 224.91 234.229 219.012 240.057 217.805Z"/><path fill="#37D0EC" d="M322.91 31.6658L327.515 28.8945C327.882 58.5226 327.374 88.2689 327.544 117.906C327.583 124.677 327.825 132.39 327.439 139.058C324.711 141.546 309.038 151.634 304.95 154.101C293.821 160.818 281.041 170.052 269.96 176.324C252.048 164.136 230.102 150.864 211.492 139.336C211.545 127.361 211.764 114.909 211.477 102.973C213.618 99.8813 259.851 71.2882 265.972 67.68L269.944 65.0809C287.462 53.7269 305.119 42.5877 322.91 31.6658Z"/><path fill="#0F6AC5" d="M265.972 67.68L269.944 65.0809L270.053 115.949L269.535 116.89L268.991 117.228C270.359 119.307 269.031 162.352 269.921 167.854C270.064 168.737 269.987 175.099 269.96 176.324C252.048 164.136 230.102 150.864 211.492 139.336C211.545 127.361 211.764 114.909 211.477 102.973C213.618 99.8813 259.851 71.2882 265.972 67.68Z"/><path fill="#1997DD" d="M265.972 67.68L269.944 65.0809L270.053 115.949L269.535 116.89L268.991 117.228C259.599 120.021 250.338 123.67 241.233 126.296C232.393 119.411 222.612 110.907 213.463 104.194C212.694 103.629 212.566 104.026 211.477 102.973C213.618 99.8813 259.851 71.2882 265.972 67.68Z"/><path fill="#28B2E8" d="M265.972 67.68L269.944 65.0809L270.053 115.949L269.535 116.89L268.991 117.228C259.599 120.021 250.338 123.67 241.233 126.296C242.65 122.317 245.853 116.012 247.738 111.983L260.258 85.1315C262.155 81.0204 267.231 71.7575 265.972 67.68Z"/><path fill="#1997DD" d="M268.991 117.228L269.535 116.89C280.071 121.177 291.316 124.94 301.973 129.014C308.408 131.474 321.835 135.578 327.439 139.058C324.711 141.546 309.038 151.634 304.95 154.101C293.821 160.818 281.041 170.052 269.96 176.324C269.987 175.099 270.064 168.737 269.921 167.854C269.031 162.352 270.359 119.307 268.991 117.228Z"/><path fill="#4FE6ED" d="M269.944 65.0809C287.462 53.7269 305.119 42.5877 322.91 31.6658C323.115 37.9132 311.296 54.5964 307.497 60.4165L285.463 93.7813C283.749 96.3757 271.742 115.446 270.053 115.949L269.944 65.0809Z"/><path fill="#1997DD" d="M492.148 198.581C534.273 197.861 578.652 198.549 620.953 198.543L875.03 198.472L875.001 207.626L863.125 207.684C735.142 207.225 607.158 207.409 479.176 208.234C484.641 205.731 487.842 202.615 492.148 198.581Z"/><path fill="#494B50" d="M458.294 136.596C471.558 135.307 473.2 142.085 476.512 141.798C476.614 139.958 476.36 138.973 477.3 137.604C479.841 137.047 485.771 137.424 488.615 137.512C489.765 151.813 489.064 171.595 487.856 185.864C486.18 205.654 456.68 208.736 445.136 192.652L442.965 187.484L455.355 187.186L455.484 187.317C461.541 193.397 468.223 194.856 474.636 188.208C476.138 183.349 476.087 181.218 476.026 176.233C450.613 200.177 423.049 149.485 458.294 136.596ZM466.12 171.508C470.352 170.125 473.297 168.684 475.43 164.457C476.817 161.704 477.048 158.511 476.07 155.588C474.343 150.464 470.141 148.474 465.182 147.635C460.975 148.927 458.415 149.878 456.208 154.027C454.697 156.931 454.406 160.317 455.401 163.436C457.06 168.608 460.992 170.906 466.12 171.508Z"/><path fill="#494B50" d="M390.306 119.222C394.264 119.093 398.029 119.16 401.983 119.225C401.909 124.981 402.699 137.858 402.112 142.502C405.847 139.431 408.761 136.982 413.636 136.464C430.466 134.674 441.368 155.388 435.013 169.709C433.602 172.889 432.605 174.414 430.506 177.113C428.603 179.094 426.284 180.954 423.918 182.278C414.652 187.465 410.136 181.207 402.161 178.874L401.553 179.277L401.398 182.267C400.554 182.855 391.318 182.612 389.588 182.604C389.499 175.322 388.56 121.651 390.306 119.222ZM415.837 172.118C428.924 163.966 425.842 148.51 409.573 148.038C402.78 151.677 398.9 159.026 402.8 166.283C404.239 168.916 406.668 170.868 409.55 171.705C411.251 172.209 414.091 172.349 415.837 172.118Z"/><path fill="#494B50" d="M655.517 143.769C667.874 128.681 686.786 138.101 685.971 156.545C685.605 164.827 685.86 174.185 685.956 182.509L673.055 182.499C673.138 172.719 673.717 159.935 671.704 150.635C669.63 149.307 666.541 147.62 664.056 147.724C662.414 147.794 660.873 148.537 659.796 149.779C655.559 154.689 656.514 168.296 656.936 174.672C656.855 177.366 656.896 179.803 656.968 182.498L644.834 182.524C645.02 174.866 647.321 154.232 640.625 149.011C635.691 145.166 631.347 149.448 628.543 153.804C628.057 163.356 627.94 172.923 628.195 182.484L616.143 182.523C615.939 167.504 615.906 152.483 616.043 137.463L627.765 137.52L628.063 143.096C632.31 138.67 633.54 137.789 639.529 136.621C640.591 136.6 641.653 136.606 642.714 136.639C648.532 136.85 651.804 139.753 655.517 143.769Z"/><path fill="#494B50" d="M714.496 136.333C727.547 135.117 739.133 144.66 740.441 157.701C741.748 170.743 732.287 182.396 719.254 183.795C706.092 185.207 694.298 175.631 692.978 162.46C691.657 149.288 701.316 137.561 714.496 136.333ZM719.599 171.997C733.802 164.506 729.323 147.353 713.925 148.029C710.216 149.794 707.638 151.791 706.186 155.819C705.048 159.006 705.23 162.515 706.691 165.567C709.345 171.04 713.903 172.366 719.599 171.997Z"/><path fill="#494B50" d="M811.277 136.589C831.773 134.802 835.808 146.523 837.642 164.028C826.474 163.876 815.305 163.868 804.138 164.004C808.072 174.45 815.52 176.071 823.948 169.024C826.458 168.861 829.406 168.863 831.955 168.801C833.811 168.594 834.59 168.748 835.472 170.319C835.464 171.282 835.277 172.104 834.739 172.892C822.69 190.522 797.217 186.048 792.485 165.993C790.946 159.261 792.107 152.194 795.72 146.309C799.729 139.907 804.429 138.13 811.277 136.589ZM815.875 155.358C819.203 155.397 823.264 156.247 824.086 152.281C822.679 147.779 816.67 146.665 812.64 146.499C809.987 147.766 806.714 149.593 804.99 152.037L804.758 153.344C806.935 156.37 812.404 155.489 815.875 155.358Z"/><path fill="#494B50" d="M582.092 136.628C582.835 136.594 583.578 136.563 584.321 136.537C602.445 135.917 608.091 147.439 608.547 164.048C597.448 163.931 585.961 164.005 574.86 164.091C580.819 174.89 585.376 176.606 595.442 168.731L600.876 168.945C603.565 168.847 604.714 168.294 606.332 170.601C606.838 175.846 595.333 182.698 590.998 183.427C560.161 188.611 550.912 144.173 582.092 136.628ZM588.125 155.391C591.181 155.357 594.888 155.956 595.227 152.181C593.451 148.142 588.233 146.837 584.267 146.424C581.453 147.845 577.747 149.724 575.922 152.371C575.54 156.809 584.983 155.508 588.125 155.391Z"/><path fill="#494B50" d="M742.88 137.474L756.011 137.446C758.428 146.086 763.529 159.504 766.518 168.371C769.014 157.701 773.262 148.048 776.152 137.502C780.624 137.399 785.409 137.5 789.907 137.52C789.018 140.78 787.329 144.489 786 147.649C781.497 159.013 777.132 171.082 772.802 182.541L759.56 182.481C756.384 173.625 753.114 164.802 749.752 156.014C747.526 150.282 744.505 143.286 742.88 137.474Z"/><path fill="#494B50" d="M868.582 136.577C869.571 136.482 869.842 136.579 870.785 136.806C872.605 138.926 871.914 145.439 871.812 148.376C864.127 148.339 861.965 148.064 857.526 154.987C856.988 164.146 856.869 173.325 857.172 182.495C854.126 182.466 848.371 183.213 845.679 181.906C845.185 181.666 845.173 180.814 845.028 180.125C845.288 166.772 844.555 151.358 844.527 137.573L857.075 137.487L857.027 144.486C861.007 139.461 862.344 137.988 868.582 136.577Z"/><path fill="#494B50" d="M555.795 136.59C561.96 136.036 560.14 143.836 560.017 148.414C559.157 148.405 558.297 148.421 557.438 148.463C541.162 149.341 544.868 171.133 545.564 182.491C543.106 182.531 535.065 182.907 533.378 181.885L533.04 137.514C537.18 137.44 541.321 137.441 545.461 137.519L545.498 143.775C549.366 139.483 550.361 138.432 555.795 136.59Z"/><path fill="#1997DD" d="M387.345 199.011L438.437 199.09C443.091 204.2 444.396 205.222 450.505 208.412C443.545 208.729 434.747 208.477 427.662 208.461L387.463 208.423C387.317 205.448 387.37 202.024 387.345 199.011Z"/><path fill="#1997DD" d="M162.346 169.644C161.052 168.867 160.914 168.732 160.042 167.499L160.359 166.694L178.365 164.524C180.96 164.198 184.683 163.412 187.103 163.462C188.023 167.073 187.541 187.376 187.034 191.747L183.24 188.411C176.92 182.19 168.998 176.122 162.346 169.644Z"/><path fill="#28B2E8" d="M162.346 169.644C161.052 168.867 160.914 168.732 160.042 167.499L160.359 166.694L178.365 164.524C180.96 164.198 184.683 163.412 187.103 163.462C183.452 166.668 181.279 171.027 177.68 173.761C174.144 172.125 166.067 169.154 162.346 169.644Z"/><path fill="#0F6AC5" d="M162.346 169.644C166.067 169.154 174.144 172.125 177.68 173.761C180.269 177.378 184.355 183.783 183.24 188.411C176.92 182.19 168.998 176.122 162.346 169.644Z"/><path fill="#471E74" d="M226.863 258.307C227.329 258.673 230.112 262.866 230.754 263.732C234.472 268.751 237.15 270.458 242.176 273.855C234.233 279.406 232.68 281.187 227.566 289.275C226.723 288.893 222.774 282.729 220.703 280.682C217.025 277.045 216.503 276.612 212.227 273.699C220.251 268.638 222.618 266.63 226.863 258.307Z"/><path fill="#4FE6ED" d="M230.146 46.8048L233.623 49.0753C238.804 52.3386 247.05 57.3937 251.434 61.3387C251.384 62.0448 251.517 62.297 251.068 62.6236C246.909 65.6508 236.072 72.9144 231.805 74.632L230.649 75.1892C228.905 72.9969 229.441 50.5244 230.146 46.8048Z"/><path fill="#37D0EC" d="M230.146 46.8048L233.623 49.0753C232.887 52.5111 236.651 60.8437 238.715 63.8092C236.555 66.3839 234.047 69.4064 232.938 72.6755C232.69 73.4072 232.269 74.031 231.805 74.632L230.649 75.1892C228.905 72.9969 229.441 50.5244 230.146 46.8048Z"/><path fill="#28B2E8" d="M251.434 61.3387C251.384 62.0448 251.517 62.297 251.068 62.6236C246.909 65.6508 236.072 72.9144 231.805 74.632C232.269 74.031 232.69 73.4072 232.938 72.6755C234.047 69.4064 236.555 66.3839 238.715 63.8092C242.858 62.2762 247.779 62.8166 251.434 61.3387Z"/><path fill="#37D0EC" d="M350.218 78.3025C350.861 78.8163 354.404 84.3501 355.334 85.5854C357.659 88.671 359.261 89.7808 362.312 92.0812C358.998 94.9238 356.546 96.8402 353.97 100.478C352.607 102.403 351.82 103.986 350.218 105.728C345.888 98.7358 343.769 97.0716 337.03 92.6388C344.684 88.3113 345.853 85.7696 350.218 78.3025Z"/><path fill="#494B50" d="M498.279 153.248C506.545 153.052 515.277 153.198 523.58 153.225C523.709 156.604 523.63 160.216 523.616 163.615L498.114 163.752C498.053 161.13 497.739 155.57 498.279 153.248Z"/><path fill="#712993" d="M315.818 257.895C317.882 260.556 319.496 262.473 321.781 264.944C319.267 267.435 317.755 268.961 316.081 272.075L309.7 265.397C311.983 262.847 313.747 260.589 315.818 257.895Z"/></svg>