<?xml version="1.0" encoding="utf-8" ?><svg xmlns="http://www.w3.org/2000/svg" xmlns:xlink="http://www.w3.org/1999/xlink" width="374" height="428" viewBox="0 0 374 428"><path fill="#481F74" d="M306.115 183.434C307.23 182.742 308.667 181.761 310.001 181.826C310.583 182.321 310.543 182.664 310.581 183.604C310.722 187.084 310.752 190.625 310.803 194.109C310.907 200.906 310.964 207.703 310.974 214.5L310.977 269.627C310.981 278.217 310.757 288.006 311.037 296.514C311.011 296.579 310.754 297.221 310.754 297.221C294.66 308.299 277.667 318.044 261.196 328.547C256.22 331.72 251.31 334.842 246.591 338.381C246.011 338.818 243.779 340.386 243.367 340.764C244.435 342.092 246.186 345.106 247.167 346.698L253.719 357.363C262.045 370.954 269.391 383.181 277.241 396.971C273.359 395.074 269.278 392.726 265.488 390.599C244.662 378.911 223.323 368.167 202.987 355.629C198.628 353.519 190.74 348.511 186.444 345.802C179.77 341.558 173.054 337.382 166.296 333.273C150.675 323.693 134.865 314.451 119.568 304.351C116.73 302.477 113.88 300.656 111.147 298.629C110.973 298.379 110.82 298.114 110.691 297.838C108.656 293.439 109.512 271.148 109.468 265L109.162 208.783C109.144 204.982 108.734 184.471 109.439 182.375C111.13 181.689 113.314 182.986 114.728 183.928C130.958 194.74 147.618 204.867 164.183 215.171L191.238 231.915C194.389 233.876 206.929 241.751 209.176 244.134C210.108 244.358 209.763 244.395 210.646 244.156C214.517 240.92 220.878 236.765 225.196 234.036C232.965 229.123 240.836 224.188 248.644 219.327C267.723 207.238 286.88 195.273 306.115 183.434Z"/><defs><linearGradient id="gradient_0" gradientUnits="userSpaceOnUse" x1="90.295692" y1="260.57227" x2="187.10835" y2="206.29222"><stop offset="0" stop-color="#451565"/><stop offset="1" stop-color="#5040A6"/></linearGradient></defs><path fill="url(#gradient_0)" d="M111.147 298.629C110.973 298.379 110.82 298.114 110.691 297.838C108.656 293.439 109.512 271.148 109.468 265L109.162 208.783C109.144 204.982 108.734 184.471 109.439 182.375C111.13 181.689 113.314 182.986 114.728 183.928C130.958 194.74 147.618 204.867 164.183 215.171L191.238 231.915C194.389 233.876 206.929 241.751 209.176 244.134C208.101 246.36 203.344 250.554 201.252 252.575C196.14 257.55 190.982 262.476 185.779 267.355C181.328 271.487 177.009 275.386 172.958 279.931C172.047 280.954 169.87 283.052 169.153 284.043C168.576 284.43 168.107 284.415 167.413 284.5C154.054 287.001 122.319 292.863 111.147 298.629Z"/><path fill="#AF4FC4" d="M306.115 183.434C307.23 182.742 308.667 181.761 310.001 181.826C310.583 182.321 310.543 182.664 310.581 183.604C310.722 187.084 310.752 190.625 310.803 194.109C310.907 200.906 310.964 207.703 310.974 214.5L310.977 269.627C310.981 278.217 310.757 288.006 311.037 296.514C309.498 296.559 290.26 288.696 287.408 287.529C276.732 283.161 266.647 278.851 255.562 275.268C250.954 272.502 211.609 245.852 210.646 244.156C214.517 240.92 220.878 236.765 225.196 234.036C232.965 229.123 240.836 224.188 248.644 219.327C267.723 207.238 286.88 195.273 306.115 183.434Z"/><path fill="#8C42B4" d="M306.115 183.434C306.169 183.957 306.214 184.482 306.258 185.006C306.666 189.869 261.819 265.735 255.562 275.268C250.954 272.502 211.609 245.852 210.646 244.156C214.517 240.92 220.878 236.765 225.196 234.036C232.965 229.123 240.836 224.188 248.644 219.327C267.723 207.238 286.88 195.273 306.115 183.434Z"/><path fill="#712993" d="M210.646 244.156C211.609 245.852 250.954 272.502 255.562 275.268C266.647 278.851 276.732 283.161 287.408 287.529C290.26 288.696 309.498 296.559 311.037 296.514C311.011 296.579 310.754 297.221 310.754 297.221C294.66 308.299 277.667 318.044 261.196 328.547C256.22 331.72 251.31 334.842 246.591 338.381C246.011 338.818 243.779 340.386 243.367 340.764C241.399 341.19 239.559 342.089 237.864 342.735C233.739 344.309 212.717 358.302 209.923 357.673C209.829 356.666 218.266 343.425 219.408 341.465C228.121 326.506 236.189 311.327 244.372 296.091C247.463 290.336 251.82 281.263 255.162 275.972C247.216 276.12 238.857 277.154 230.971 278.052L199.295 281.645C188.853 282.824 179.668 283.973 169.153 284.043C169.87 283.052 172.047 280.954 172.958 279.931C177.009 275.386 181.328 271.487 185.779 267.355C190.982 262.476 196.14 257.55 201.252 252.575C203.344 250.554 208.101 246.36 209.176 244.134C210.108 244.358 209.763 244.395 210.646 244.156Z"/><path d="M111.147 298.629C122.319 292.863 154.054 287.001 167.413 284.5C174.318 297.727 181.294 310.918 188.339 324.072C191.808 330.497 203.399 349.322 202.987 355.629C198.628 353.519 190.74 348.511 186.444 345.802C179.77 341.558 173.054 337.382 166.296 333.273C150.675 323.693 134.865 314.451 119.568 304.351C116.73 302.477 113.88 300.656 111.147 298.629Z"/><path fill="#37D1EA" d="M284.681 19.2958C287.079 17.9184 289.562 16.5056 291.897 15.0264C291.622 26.5193 291.797 38.4648 291.782 50.0043L291.751 116.876L291.725 154.199C291.708 158.999 291.277 167.624 291.631 171.966C290.046 175.532 248.18 200.611 241.998 204.97C234.948 209.94 223.597 216.964 216.022 221.776C214.202 222.863 210.497 225.634 208.55 224.704C206.858 222.983 197.429 217.278 194.959 215.655C180.822 206.468 166.567 197.464 152.198 188.644C143.56 183.29 135.049 177.823 126.266 172.676C125.991 160.919 126.567 148.741 126.311 136.953C126.225 132.974 126.51 125.635 125.956 121.989C125.986 121.61 126.015 121.239 126.111 120.869C127.068 117.151 182.557 83.5306 190.192 78.7667C196.589 74.7751 202.863 70.5415 209.29 66.6129L263.814 32.1899C270.032 28.3422 278.493 22.5638 284.681 19.2958Z"/><path fill="#0E6AC6" d="M125.956 121.989C125.986 121.61 126.015 121.239 126.111 120.869C127.068 117.151 182.557 83.5306 190.192 78.7667C196.589 74.7751 202.863 70.5415 209.29 66.6129C209.618 68.3322 209.546 72.9846 209.565 74.9753L209.687 90.7267L209.795 122.224C209.809 127.354 210 133.72 209.798 138.77C209.759 139.717 209.758 139.889 209.435 140.773L207.929 141.108C208.435 144.737 208.731 148.392 208.814 152.055C209.316 167.524 208.761 183.88 208.971 199.462C209.023 203.289 209.257 222.226 208.55 224.704C206.858 222.983 197.429 217.278 194.959 215.655C180.822 206.468 166.567 197.464 152.198 188.644C143.56 183.29 135.049 177.823 126.266 172.676C125.991 160.919 126.567 148.741 126.311 136.953C126.225 132.974 126.51 125.635 125.956 121.989Z"/><defs><linearGradient id="gradient_1" gradientUnits="userSpaceOnUse" x1="143.16618" y1="87.515839" x2="216.90157" y2="124.49414"><stop offset="0" stop-color="#1087D8"/><stop offset="1" stop-color="#2BB8EA"/></linearGradient></defs><path fill="url(#gradient_1)" d="M125.956 121.989C125.986 121.61 126.015 121.239 126.111 120.869C127.068 117.151 182.557 83.5306 190.192 78.7667C196.589 74.7751 202.863 70.5415 209.29 66.6129C209.618 68.3322 209.546 72.9846 209.565 74.9753L209.687 90.7267L209.795 122.224C209.809 127.354 210 133.72 209.798 138.77C209.759 139.717 209.758 139.889 209.435 140.773L207.929 141.108C204.005 142.801 196.549 144.838 192.256 146.336C184.635 148.996 176.799 151.744 169.074 154.005C166.995 152.831 161.531 148.207 159.376 146.525C151.257 140.187 143.454 133.354 135.247 127.121C133.057 125.457 130.473 123.498 128.14 121.998C127.84 121.805 126.394 121.953 125.956 121.989Z"/><path fill="#1897DD" d="M207.929 141.108L209.435 140.773C216.404 143.11 224.55 146.52 231.714 149.132L275.256 164.825C278.524 166.013 281.736 167.352 284.882 168.837C286.238 169.474 290.578 171.667 291.631 171.966C290.046 175.532 248.18 200.611 241.998 204.97C234.948 209.94 223.597 216.964 216.022 221.776C214.202 222.863 210.497 225.634 208.55 224.704C209.257 222.226 209.023 203.289 208.971 199.462C208.761 183.88 209.316 167.524 208.814 152.055C208.731 148.392 208.435 144.737 207.929 141.108Z"/><path fill="#4EE6EB" d="M209.29 66.6129L263.814 32.1899C270.032 28.3422 278.493 22.5638 284.681 19.2958C283.533 27.0138 280.898 32.1482 276.849 38.7683C268.369 52.6336 259.077 66 250.166 79.612L227.145 114.752C224.973 118.061 212.227 138.31 209.798 138.77C210 133.72 209.809 127.354 209.795 122.224L209.687 90.7267L209.565 74.9753C209.546 72.9846 209.618 68.3322 209.29 66.6129Z"/><path fill="#1897DD" d="M87.6394 207.204C89.1653 207.053 90.3774 207.01 91.9138 206.981C92.3017 215.096 92.3811 223.223 92.152 231.344C92.0407 235.115 91.3789 243.897 91.6729 247.115C89.4948 245.493 87.6736 243.74 85.6095 242.019C76.2962 234.075 65.9161 224.652 56.8845 216.386C55.4587 215.302 52.7932 213.73 53.08 211.812C54.798 210.396 73.4064 209.365 77.1117 208.546C78.7412 208.186 85.831 207.214 87.6394 207.204Z"/><path fill="#27B1E8" d="M56.8845 216.386C55.4587 215.302 52.7932 213.73 53.08 211.812C54.798 210.396 73.4064 209.365 77.1117 208.546C78.7412 208.186 85.831 207.214 87.6394 207.204C88.2583 207.275 89.1736 207.318 89.7054 207.549C89.2801 209.884 81.0845 219.457 78.7276 221.063C78.4803 221.234 78.2273 221.397 77.9692 221.551C77.7124 221.43 77.4543 221.312 77.1951 221.197C73.0861 219.356 61.0224 214.794 56.8845 216.386Z"/><path fill="#0E6AC6" d="M56.8845 216.386C61.0224 214.794 73.0861 219.356 77.1951 221.197C77.4543 221.312 77.7124 221.43 77.9692 221.551C81.6004 226.143 87.565 236.206 85.6095 242.019C76.2962 234.075 65.9161 224.652 56.8845 216.386Z"/><path fill="#481F74" d="M148.285 342.449C149.307 343.211 153.797 350.046 155.109 351.73C159.464 357.312 164.088 360.523 169.964 364.378C161.129 369.699 154.537 377.045 149.441 385.91C147.685 385.277 143.729 379.022 142.366 377.281C137.752 371.387 133.664 368.178 127.609 364.033C140.359 355.617 140.464 355.681 148.285 342.449Z"/><path fill="#37D1EA" d="M152.634 40.6485C156.87 42.7972 182.47 59.5176 183.563 62.2416C181.763 65.3428 161.142 77.3676 157.062 79.5977C155.823 80.1 154.697 80.8913 153.478 80.9816C150.771 79.0188 152.074 45.042 152.634 40.6485Z"/><path fill="#27B1E8" d="M183.563 62.2416C181.763 65.3428 161.142 77.3676 157.062 79.5977C157.326 75.722 160.013 71.8152 162.093 68.6272C166.245 62.262 176.399 63.2709 183.563 62.2416Z"/><path fill="#37D1EA" d="M324.003 85.8991C325.179 86.5093 330.433 94.8709 331.583 96.3642C334.564 100.237 337.184 102.244 341.032 105.168C336.504 110.144 330.77 113.557 327.409 119.996C326.989 120.8 324.826 123.886 324.004 124.045L323.504 123.595C316.366 113.747 315.351 112.899 305.5 106.054C317.574 98.0623 316.292 97.4755 324.003 85.8991Z"/><path fill="#712993" d="M274.816 341.902C275.562 342.068 282.258 350.254 283.322 351.51C280.173 354.884 277.557 357.397 275.565 361.624C272.801 359.177 268.948 355.083 266.338 352.347C267.485 350.477 273.128 343.888 274.816 341.902Z"/></svg>